{"title":"The.Choice.2016.HQ.TS.VOSE","uid":13552985,"size":1771872326,"categoryP":"video","categoryS":"movies","magnet":"?xt=urn:btih:71ff70ef15b399ab14fee1f6047fe88efebc8b73&amp;dn=The.Choice.2016.HQ.TS.VOSE&amp;tr=udp%3A%2F%2Ftracker.leechers-paradise.org%3A6969&amp;tr=udp%3A%2F%2Fzer0day.ch%3A1337&amp;tr=udp%3A%2F%2Fopen.demonii.com%3A1337&amp;tr=udp%3A%2F%2Ftracker.coppersurfer.tk%3A6969&amp;tr=udp%3A%2F%2Fexodus.desync.com%3A6969","seeders":14,"leechers":4,"uploader":"xxxlavalxxx","files":2,"time":1455569525,"description":"http://extraimago.com/image/f92\r\n \nhttp://www.imdb.com/title/tt3797868/\r\n\r\n\r\nTravis and Gabby first meet as neighbors in a small coastal town and wind up in a relationship that is tested by life's most defining events.\r\n\r\nDirector: Ross Katz\r\nWriters: Bryan Sipe (screenplay), Nicholas Sparks (novel)\r\nStars: Benjamin Walker, Teresa Palmer, Alexandra Daddario \r\nGenres: Drama | Romance\r\nCountry: USA\r\nLanguage: English\r\n\r\n\r\nFormat                                   : AVI\r\nFormat/Info                              : Audio Video Interleave\r\nFormat profile                           : OpenDML\r\nFile size                                : 1.65 GiB\r\nDuration                                 : 1h 42mn\r\nOverall bit rate                         : 2 305 Kbps\r\nWriting application                      : Lavf53.32.100\r\n\r\nID                                       : 0\r\nFormat                                   : AVC\r\nFormat/Info                              : Advanced Video Codec\r\nFormat profile                           :   \r\nFormat settings, CABAC                   : Yes\r\nFormat settings, ReFrames                : 2 frames\r\nCodec ID                                 : H264\r\nDuration                                 : 1h 42mn\r\nBit rate                                 : 2 100 Kbps\r\nWidth                                    : 720 pixels\r\nHeight                                   : 274 pixels\r\nDisplay aspect ratio                     : 2.628\r\nFrame rate                               : 23.976 (24000/1001) fps\r\nColor space                              : YUV\r\nChroma subsampling                       : 4:2:0\r\nBit depth                                : 8 bits\r\nScan type                                : Progressive\r\nBits/(Pixel*Frame)                       : 0.444\r\nStream size                              : 1.50 GiB (91%)\r\nWriting library                          : x264 core\r\nColor range                              : Limited\r\nColor primaries                          : BT.601 NTSC\r\nTransfer characteristics                 : BT.709\r\nMatrix coefficients                      : BT.601\r\n\r\nID                                       : 1\r\nFormat                                   : MPEG Audio\r\nFormat version                           : Version 1\r\nFormat profile                           : Layer 3\r\nMode                                     : Joint stereo\r\nMode extension                           : MS Stereo\r\nCodec ID                                 : 55\r\nCodec ID/Hint                            : MP3\r\nDuration                                 : 1h 42mn\r\nBit rate mode                            : Constant\r\nBit rate                                 : 192 Kbps\r\nChannel(s)                               : 2 channels\r\nSampling rate                            : 48.0 KHz\r\nCompression mode                         : Lossy\r\nStream size                              : 141 MiB (8%)\r\nAlignment                                : Aligned on interleaves\r\nInterleave, duration                     : 24 ms (0.58 video frame)\r\n\r\n \nhttp://extraimago.com/image/f9T \nhttp://extraimago.com/image/f9j \nhttp://extraimago.com/image/f9n \nhttp://extraimago.com/image/f9s \nhttp://extraimago.com/image/f97 \nhttp://extraimago.com/image/f9c \nhttp://extraimago.com/image/f91","torrent":{"xt":"urn:btih:71ff70ef15b399ab14fee1f6047fe88efebc8b73","amp;dn":"The.Choice.2016.HQ.TS.VOSE","amp;tr":["udp%3A%2F%2Ftracker.leechers-paradise.org%3A6969","udp%3A%2F%2Fzer0day.ch%3A1337","udp%3A%2F%2Fopen.demonii.com%3A1337","udp%3A%2F%2Ftracker.coppersurfer.tk%3A6969","udp%3A%2F%2Fexodus.desync.com%3A6969"],"infoHash":"71ff70ef15b399ab14fee1f6047fe88efebc8b73","infoHashBuffer":{"type":"Buffer","data":[113,255,112,239,21,179,153,171,20,254,225,246,4,127,232,142,254,188,139,115]},"announce":[],"urlList":[]}}